<svg width="32" height="32" viewBox="0 0 32 32" fill="none" xmlns="http://www.w3.org/2000/svg">
<mask id="mask0_2006_958" style="mask-type:alpha" maskUnits="userSpaceOnUse" x="0" y="0" width="32" height="32">
<rect width="32" height="32" fill="#D9D9D9"/>
</mask>
<g mask="url(#mask0_2006_958)">
<path d="M14.6667 17.3333H8.00008C7.6223 17.3333 7.30564 17.2056 7.05008 16.95C6.79453 16.6944 6.66675 16.3778 6.66675 16C6.66675 15.6222 6.79453 15.3056 7.05008 15.05C7.30564 14.7944 7.6223 14.6667 8.00008 14.6667H14.6667V8C14.6667 7.62222 14.7945 7.30556 15.0501 7.05C15.3056 6.79445 15.6223 6.66667 16.0001 6.66667C16.3779 6.66667 16.6945 6.79445 16.9501 7.05C17.2056 7.30556 17.3334 7.62222 17.3334 8V14.6667H24.0001C24.3779 14.6667 24.6945 14.7944 24.9501 15.05C25.2056 15.3056 25.3334 15.6222 25.3334 16C25.3334 16.3778 25.2056 16.6944 24.9501 16.95C24.6945 17.2056 24.3779 17.3333 24.0001 17.3333H17.3334V24C17.3334 24.3778 17.2056 24.6944 16.9501 24.95C16.6945 25.2056 16.3779 25.3333 16.0001 25.3333C15.6223 25.3333 15.3056 25.2056 15.0501 24.95C14.7945 24.6944 14.6667 24.3778 14.6667 24V17.3333Z" fill="black"/>
</g>
</svg>
